<?xml version="1.0" standalone="no"?>
<!DOCTYPE svg PUBLIC "-//W3C//DTD SVG 1.1//EN" "http://www.w3.org/Graphics/SVG/1.1/DTD/svg11.dtd">
<svg version="1.1" xmlns="http://www.w3.org/2000/svg" viewBox="0 0 83.86629719731297 39.044373534410624" width="167.73259439462595" height="78.08874706882125"><!-- svg-source:excalidraw --><metadata></metadata><defs><style class="style-fonts">
      </style></defs><g stroke-linecap="round"><g transform="translate(75.17031920949682 14.194051707520885) rotate(352.4170083135278 -32.29527379365487 7.7415536607229)"><path d="M0 0 C-4.43 2.58, -15.81 15.28, -26.57 15.48 C-37.34 15.68, -58.25 3.59, -64.59 1.21 M0 0 C-4.43 2.58, -15.81 15.28, -26.57 15.48 C-37.34 15.68, -58.25 3.59, -64.59 1.21" stroke="#1e1e1e" stroke-width="2" fill="none"></path></g><g transform="translate(75.17031920949682 14.194051707520885) rotate(352.4170083135278 -32.29527379365487 7.7415536607229)"><path d="M-64.59 1.21 L-49.59 1.19 L-54.94 12.69 L-64.59 1.21" stroke="none" stroke-width="0" fill="#ffffff" fill-rule="evenodd"></path><path d="M-64.59 1.21 C-59.85 1.2, -55.11 1.2, -49.59 1.19 M-64.59 1.21 C-61.33 1.2, -58.08 1.2, -49.59 1.19 M-49.59 1.19 C-50.9 4.01, -52.21 6.83, -54.94 12.69 M-49.59 1.19 C-50.93 4.06, -52.26 6.93, -54.94 12.69 M-54.94 12.69 C-57.29 9.88, -59.65 7.08, -64.59 1.21 M-54.94 12.69 C-57.51 9.62, -60.09 6.56, -64.59 1.21 M-64.59 1.21 C-64.59 1.21, -64.59 1.21, -64.59 1.21 M-64.59 1.21 C-64.59 1.21, -64.59 1.21, -64.59 1.21" stroke="#1e1e1e" stroke-width="2" fill="none"></path></g></g><mask></mask></svg>